HIERARCHY
ROOT Hips
{
  OFFSET 0.000000 0.000000 0.000000
  CHANNELS 6 Xposition Yposition Zposition Zrotation Yrotation Xrotation
  JOINT Spine
  {
    OFFSET 0.762862 23.197727 -6.058858
    CHANNELS 3 Zrotation Yrotation Xrotation
    JOINT Chest
    {
      OFFSET 0.762862 23.197727 -6.058858
      CHANNELS 3 Zrotation Yrotation Xrotation
      JOINT Neck
      {
        OFFSET -0.270074 9.229822 -3.797407
        CHANNELS 3 Zrotation Yrotation Xrotation
        JOINT Head
        {
          OFFSET 0.225285 8.430608 -7.939136
          CHANNELS 3 Zrotation Yrotation Xrotation
          End Site
          {
            OFFSET 0.067585 2.529182 -2.381741
          }
        }
      }
      JOINT LeftShoulder
      {
        OFFSET 17.595006 0.044015 0.996102
        CHANNELS 3 Zrotation Yrotation Xrotation
        JOINT LeftArm
        {
          OFFSET 3.473531 -23.049457 3.982832
          CHANNELS 3 Zrotation Yrotation Xrotation
          JOINT LeftForeArm
          {
            OFFSET 3.218371 -22.980839 -10.241008
            CHANNELS 3 Zrotation Yrotation Xrotation
            JOINT LeftHand
            {
              OFFSET -0.008887 -5.924601 -2.989147
              CHANNELS 3 Zrotation Yrotation Xrotation
              End Site
              {
                OFFSET -0.002666 -1.777380 -0.896744
              }
            }
          }
        }
      }
      JOINT RightShoulder
      {
        OFFSET -17.595006 -0.044015 -0.996102
        CHANNELS 3 Zrotation Yrotation Xrotation
        JOINT RightArm
        {
          OFFSET -5.553442 -24.118242 6.751946
          CHANNELS 3 Zrotation Yrotation Xrotation
          JOINT RightForeArm
          {
            OFFSET -3.099014 -24.977112 -8.059516
            CHANNELS 3 Zrotation Yrotation Xrotation
            JOINT RightHand
            {
              OFFSET 0.298828 -5.701374 -2.573080
              CHANNELS 3 Zrotation Yrotation Xrotation
              End Site
              {
                OFFSET 0.089648 -1.710412 -0.771924
              }
            }
          }
        }
      }
    }
  }
  JOINT LeftUpLeg
  {
    OFFSET 11.990773 -0.614304 0.788698
    CHANNELS 3 Zrotation Yrotation Xrotation
    JOINT LeftLeg
    {
      OFFSET -5.144974 -41.347031 -0.530598
      CHANNELS 3 Zrotation Yrotation Xrotation
      JOINT LeftFoot
      {
        OFFSET 2.709190 -35.138144 18.775504
        CHANNELS 3 Zrotation Yrotation Xrotation
        End Site
        {
          OFFSET 0.812757 -10.541443 5.632651
        }
      }
    }
  }
  JOINT RightUpLeg
  {
    OFFSET -11.990773 0.614304 -0.788698
    CHANNELS 3 Zrotation Yrotation Xrotation
    JOINT RightLeg
    {
      OFFSET 0.284998 -37.357294 5.081156
      CHANNELS 3 Zrotation Yrotation Xrotation
      JOINT RightFoot
      {
        OFFSET 4.690763 -28.563407 28.545631
        CHANNELS 3 Zrotation Yrotation Xrotation
        End Site
        {
          OFFSET 1.407229 -8.569022 8.563689
        }
      }
    }
  }
}
MOTION
Frames: 19
Frame Time: 0.083333
0.000000 60.000000 0.000000 0.120223 0.021387 0.285476 0.120223 0.021387 0.285476 0.584058 0.260355 1.170290 0.228659 0.180996 1.019628 0.000000 0.000000 0.000000 0.565117 0.129908 0.231044 -0.251217 0.045205 -0.461196 -1.827886 0.912971 -0.245659 0.000000 0.000000 0.000000 0.132051 -0.131334 0.725345 -0.003949 0.047125 -0.370535 -0.025961 0.004451 -0.137335 0.000000 0.000000 0.000000 -0.151881 0.302253 -2.466583 0.021952 0.090555 1.038821 0.000000 0.000000 0.000000 0.788435 0.113359 -0.956645 -1.316804 0.230807 8.380182 0.000000 0.000000 0.000000
0.000000 60.000000 0.000000 0.100002 0.013591 0.358990 0.100002 0.013591 0.358990 0.530310 0.235686 1.090969 0.204334 0.159993 0.950964 0.000000 0.000000 0.000000 0.569899 0.132174 0.248185 -0.263568 0.076098 -0.287922 -1.717590 0.862806 -0.129482 0.000000 0.000000 0.000000 0.160802 -0.128463 0.742418 -0.036078 0.047991 -0.294997 -0.065767 0.024598 -0.096146 0.000000 0.000000 0.000000 -0.152708 0.291020 -2.388325 -0.003059 0.076065 1.014258 0.000000 0.000000 0.000000 0.885285 0.123468 -0.626817 -1.282914 0.242027 8.064399 0.000000 0.000000 0.000000
0.000000 60.000000 0.000000 0.228120 0.017409 1.211854 0.228120 0.017409 1.211854 1.379080 0.608599 2.848836 0.522047 0.404566 2.499763 0.000000 0.000000 0.000000 1.751557 0.398497 0.733054 -0.860803 0.341736 -0.310201 -4.670888 2.368028 0.025618 0.000000 0.000000 0.000000 0.530548 -0.362645 2.173488 -0.191193 0.136889 -0.614120 -0.291636 0.121985 -0.180203 0.000000 0.000000 0.000000 -0.450801 0.789594 -6.527909 -0.109203 0.164326 2.857660 0.000000 0.000000 0.000000 2.788237 0.377135 -0.816037 -3.560387 0.709573 21.979007 0.000000 0.000000 0.000000
0.000000 60.000000 0.000000 0.219008 -0.017053 2.135311 0.219008 -0.017053 2.135311 1.797525 0.777339 3.539952 0.655285 0.500609 3.183041 0.000000 0.000000 0.000000 3.059717 0.665836 1.141137 -1.859351 0.983670 0.873996 -6.909260 3.597835 1.161915 0.000000 0.000000 0.000000 0.902761 -0.540174 3.342956 -0.434542 0.185933 -0.382693 -0.620353 0.273179 -0.116535 0.000000 0.000000 0.000000 -0.744669 1.048333 -8.811356 -0.483966 0.087180 4.240912 0.000000 0.000000 0.000000 4.552332 0.585998 0.975966 -4.978998 1.048523 29.619947 0.000000 0.000000 0.000000
0.000000 60.000000 0.000000 0.249676 -0.022733 2.507267 0.249676 -0.022733 2.507267 2.213242 0.933639 3.720533 0.807314 0.622944 3.510999 0.000000 0.000000 0.000000 4.422376 0.930699 1.607621 -3.808267 2.231191 2.581898 -10.201084 5.539160 2.835554 0.000000 0.000000 0.000000 0.971611 -0.679966 4.006820 -0.367056 0.130557 -0.105900 -0.662015 0.282924 -0.268739 0.000000 0.000000 0.000000 -1.050063 1.072947 -9.197939 -1.038964 -0.101385 5.204483 0.000000 0.000000 0.000000 4.962528 0.600876 2.001340 -5.435954 1.059569 31.239513 0.000000 0.000000 0.000000
0.000000 60.000000 0.000000 0.328100 -0.038643 3.473210 0.328100 -0.038643 3.473210 2.607557 1.082606 4.421712 1.015177 0.773938 4.285942 0.000000 0.000000 0.000000 5.552331 1.248097 3.098510 -6.678845 4.391038 6.148086 -14.939315 8.496439 5.343354 0.000000 0.000000 0.000000 1.164524 -0.807436 4.741390 -0.092872 -0.025535 0.439653 -0.728873 0.310527 -0.312231 0.000000 0.000000 0.000000 -1.334280 1.068162 -9.320336 -1.618153 -0.343248 5.630213 0.000000 0.000000 0.000000 5.484932 0.616637 3.095067 -5.628736 0.999666 31.535013 0.000000 0.000000 0.000000
0.000000 60.000000 0.000000 0.546515 -0.030038 4.592905 0.546515 -0.030038 4.592905 2.948293 1.208245 5.219460 1.400421 1.069164 5.221383 0.000000 0.000000 0.000000 7.166615 1.638897 4.869179 -8.892498 6.441206 9.801783 -17.680207 10.420092 7.270932 0.000000 0.000000 0.000000 1.550391 -0.770209 4.969891 0.343654 -0.250043 1.090210 -0.627483 0.255561 -0.487639 0.000000 0.000000 0.000000 -1.375804 0.981545 -8.578731 -1.818269 -0.526640 4.673614 0.000000 0.000000 0.000000 6.556150 0.701172 3.756943 -5.481010 0.772879 29.766097 0.000000 0.000000 0.000000
0.000000 60.000000 0.000000 1.111603 0.094154 4.599382 1.111603 0.094154 4.599382 3.413864 1.376886 5.123863 1.830048 1.430673 5.400903 0.000000 0.000000 0.000000 7.942827 1.812719 5.841972 -10.281760 7.770932 11.800211 -18.475117 10.915834 7.371170 0.000000 0.000000 0.000000 2.143641 -0.520875 4.520959 0.947780 -0.441161 1.006199 -0.189936 0.039443 -0.855377 0.000000 0.000000 0.000000 -1.391169 0.965230 -8.442744 -1.812869 -0.558632 4.312697 0.000000 0.000000 0.000000 7.369851 0.760518 4.195101 -5.212971 0.864306 29.435101 0.000000 0.000000 0.000000
0.000000 60.000000 0.000000 1.873280 0.271932 4.371429 1.873280 0.271932 4.371429 3.854241 1.538479 4.660351 2.172741 1.737561 5.157525 0.000000 0.000000 0.000000 7.839071 1.902666 7.142035 -10.872044 8.155523 11.894147 -17.368853 10.089388 6.471557 0.000000 0.000000 0.000000 2.799204 -0.254356 4.080748 1.512588 -0.640734 1.091438 -0.088853 -0.016671 -1.070681 0.000000 0.000000 0.000000 -1.317031 0.993656 -8.655812 -1.743957 -0.338629 6.333516 0.000000 0.000000 0.000000 7.691218 0.775717 4.485285 -4.466092 1.566252 30.965808 0.000000 0.000000 0.000000
0.000000 60.000000 0.000000 2.439359 0.407871 4.167607 2.439359 0.407871 4.167607 3.796002 1.519274 4.444891 2.128532 1.704907 5.065063 0.000000 0.000000 0.000000 6.723256 1.727766 6.564726 -9.349103 6.745244 9.944246 -14.748249 8.309495 4.962512 0.000000 0.000000 0.000000 3.213607 -0.121416 3.953942 1.942032 -0.736253 0.765831 0.071219 -0.101132 -1.361818 0.000000 0.000000 0.000000 -0.889066 0.964675 -8.200432 -1.536606 -0.072365 8.183407 0.000000 0.000000 0.000000 7.739648 0.795272 4.243011 -3.826487 1.708059 29.547301 0.000000 0.000000 0.000000
0.000000 60.000000 0.000000 2.598912 0.458161 3.904561 2.598912 0.458161 3.904561 3.671613 1.474698 4.305477 2.158888 1.735320 4.988923 0.000000 0.000000 0.000000 5.001106 1.396689 5.290918 -7.764969 5.101407 6.860169 -12.568198 6.761890 2.811719 0.000000 0.000000 0.000000 3.159353 -0.153493 4.027442 2.382304 -0.738490 -0.202151 0.625500 -0.363461 -1.797978 0.000000 0.000000 0.000000 0.376133 0.934744 -7.425401 -0.602574 0.262472 6.661847 0.000000 0.000000 0.000000 8.058703 0.841234 4.026955 -3.185760 1.924604 28.466907 0.000000 0.000000 0.000000
0.000000 60.000000 0.000000 2.623655 0.480972 3.598961 2.623655 0.480972 3.598961 3.419244 1.382385 4.197921 1.939219 1.547686 4.948576 0.000000 0.000000 0.000000 3.594032 0.983615 3.145190 -6.695102 3.703865 3.164584 -10.993771 5.677818 0.917174 0.000000 0.000000 0.000000 2.915651 -0.245629 4.154710 2.692362 -0.654517 -1.449418 1.231554 -0.629798 -1.889116 0.000000 0.000000 0.000000 2.449431 0.911636 -6.445582 1.306410 0.822331 1.342057 0.000000 0.000000 0.000000 8.562482 0.933447 3.456318 -2.550766 1.925974 25.809187 0.000000 0.000000 0.000000
0.000000 60.000000 0.000000 2.654155 0.475053 3.825692 2.654155 0.475053 3.825692 3.265507 1.326240 4.159949 1.828404 1.453202 4.930056 0.000000 0.000000 0.000000 2.801465 0.718202 1.901913 -5.637507 2.713736 0.852067 -8.707214 4.416650 0.012655 0.000000 0.000000 0.000000 2.549942 -0.294994 4.000945 2.555089 -0.594598 -1.564470 1.096612 -0.563181 -1.656512 0.000000 0.000000 0.000000 3.869758 0.996895 -6.585403 2.054589 0.833607 -4.756024 0.000000 0.000000 0.000000 9.269876 1.094369 2.268111 -1.932007 1.705933 21.594332 0.000000 0.000000 0.000000
0.000000 60.000000 0.000000 2.706024 0.457954 4.340299 2.706024 0.457954 4.340299 3.151808 1.282039 4.572306 1.783810 1.401004 5.185535 0.000000 0.000000 0.000000 2.339235 0.484169 0.637119 -4.604020 1.858740 -1.132449 -5.337762 2.662446 -0.454064 0.000000 0.000000 0.000000 2.165258 -0.398919 4.038421 2.589650 -0.697937 -0.949202 1.529216 -0.721389 -0.799669 0.000000 0.000000 0.000000 3.767859 1.012884 -6.713509 1.502040 0.601303 -3.263226 0.000000 0.000000 0.000000 9.441863 1.190138 1.255643 -1.785464 1.710578 20.952953 0.000000 0.000000 0.000000
0.000000 60.000000 0.000000 2.917203 0.551541 3.580825 2.917203 0.551541 3.580825 2.862878 1.174502 3.939418 1.688871 1.345945 4.643757 0.000000 0.000000 0.000000 1.520148 0.294257 0.239024 -3.696246 1.137592 -2.992999 -3.566082 1.797835 0.355604 0.000000 0.000000 0.000000 1.666300 -0.378890 3.452738 3.017468 -0.992483 0.055532 2.205839 -0.995737 0.245978 0.000000 0.000000 0.000000 3.440393 0.890864 -6.012798 1.477250 0.897697 1.931316 0.000000 0.000000 0.000000 9.461059 1.190292 1.281554 -1.660820 2.054101 22.781307 0.000000 0.000000 0.000000
0.000000 60.000000 0.000000 3.328186 0.723650 2.317685 3.328186 0.723650 2.317685 2.424259 1.009983 2.925445 1.509481 1.229749 3.839941 0.000000 0.000000 0.000000 1.310452 0.191806 -0.247255 -2.541732 0.314601 -4.998648 -1.759288 0.919369 1.577976 0.000000 0.000000 0.000000 0.657853 -0.510677 2.972093 4.267591 -1.704798 1.834732 3.564691 -1.592927 1.972089 0.000000 0.000000 0.000000 2.999614 0.639179 -4.436736 1.627731 1.327697 8.301409 0.000000 0.000000 0.000000 9.267100 1.206417 0.750112 -1.464154 2.313521 23.711675 0.000000 0.000000 0.000000
0.000000 60.000000 0.000000 3.599658 0.812737 1.944085 3.599658 0.812737 1.944085 2.395562 0.997511 2.594660 1.382346 1.125232 3.681646 0.000000 0.000000 0.000000 1.274739 0.189679 -0.220202 -1.201582 -0.149260 -4.537832 -0.444619 0.224635 0.992284 0.000000 0.000000 0.000000 -1.059093 -1.071672 3.608986 6.006563 -2.749825 4.177408 5.567164 -2.571591 3.758448 0.000000 0.000000 0.000000 2.331479 0.312160 -2.359398 2.152778 1.684540 10.552460 0.000000 0.000000 0.000000 9.130781 1.168575 1.021494 -1.223306 2.474679 23.711108 0.000000 0.000000 0.000000
0.000000 60.000000 0.000000 3.528962 0.778085 2.216069 3.528962 0.778085 2.216069 2.281355 0.952682 2.446889 1.341749 1.095133 3.555588 0.000000 0.000000 0.000000 1.739812 0.246656 -0.406296 -0.240059 -0.415317 -3.707266 0.238801 -0.131242 0.834044 0.000000 0.000000 0.000000 -2.317686 -1.677961 5.035812 6.785290 -3.784847 8.041487 8.258949 -3.927564 5.929398 0.000000 0.000000 0.000000 1.854771 0.329876 -2.512570 2.461275 1.703729 8.126803 0.000000 0.000000 0.000000 8.857528 1.132641 1.044653 0.190438 3.351434 23.229699 0.000000 0.000000 0.000000
0.000000 60.000000 0.000000 3.367484 0.698226 2.858956 3.367484 0.698226 2.858956 1.871007 0.795808 2.588930 1.285138 1.041394 3.632339 0.000000 0.000000 0.000000 2.669846 0.367978 -0.722413 -0.041282 -0.402661 -3.035275 -1.314114 0.660327 -0.032902 0.000000 0.000000 0.000000 -2.847255 -1.848364 5.281126 7.006060 -4.047821 8.893455 8.952747 -4.275809 5.715987 0.000000 0.000000 0.000000 1.323868 0.344797 -2.665719 2.864248 1.804531 6.318462 0.000000 0.000000 0.000000 8.167876 1.027105 1.320142 2.263348 4.572981 21.991818 0.000000 0.000000 0.000000
